<svg id="visual" viewBox="0 0 675 900" width="675" height="900" xmlns="http://www.w3.org/2000/svg" xmlns:xlink="http://www.w3.org/1999/xlink" version="1.1"><rect x="0" y="0" width="675" height="900" fill="#0026e6"></rect><path d="M612 900L571 818L580 736L577 655L614 573L579 491L574 409L573 327L608 245L622 164L599 82L614 0L675 0L675 82L675 164L675 245L675 327L675 409L675 491L675 573L675 655L675 736L675 818L675 900Z" fill="#6983ff"></path><path d="M583 900L601 818L601 736L623 655L610 573L580 491L605 409L602 327L575 245L603 164L606 82L599 0L675 0L675 82L675 164L675 245L675 327L675 409L675 491L675 573L675 655L675 736L675 818L675 900Z" fill="#8f9aff"></path><path d="M608 900L602 818L613 736L633 655L619 573L624 491L625 409L594 327L624 245L618 164L628 82L641 0L675 0L675 82L675 164L675 245L675 327L675 409L675 491L675 573L675 655L675 736L675 818L675 900Z" fill="#afb3ff"></path><path d="M643 900L609 818L639 736L616 655L647 573L617 491L633 409L622 327L624 245L637 164L647 82L640 0L675 0L675 82L675 164L675 245L675 327L675 409L675 491L675 573L675 655L675 736L675 818L675 900Z" fill="#cbcbff"></path><path d="M637 900L631 818L637 736L656 655L642 573L640 491L654 409L635 327L635 245L633 164L649 82L659 0L675 0L675 82L675 164L675 245L675 327L675 409L675 491L675 573L675 655L675 736L675 818L675 900Z" fill="#e6e5ff"></path><path d="M666 900L649 818L668 736L644 655L660 573L663 491L653 409L647 327L668 245L670 164L670 82L665 0L675 0L675 82L675 164L675 245L675 327L675 409L675 491L675 573L675 655L675 736L675 818L675 900Z" fill="#ffffff"></path></svg>